<svg viewBox="0 0 800 800" xmlns="http://www.w3.org/2000/svg"><path d="M639.4739175665796,507.41044808803406 L487.19109327376384,595.842944936069 M639.4739175665796,507.41044808803406 L640.7664651241088,199.6712824512683 M654.0303898234787,192.03747142170437 L640.7664651241088,199.6712824512683 M654.0303898234787,192.03747142170437 L654.098276052255,176.57990856681718 M654.098276052255,176.57990856681718 L474.49267007387914,279.90191295048623 M474.46490039489004,295.3831285177621 L474.49267007387914,279.90191295048623 M487.8033665057344,287.70641653226164 L474.46490039489004,295.3831285177621 M487.8033665057344,287.70641653226164 L487.19109327376384,595.842944936069 M585.5165754892278,370.0844985532661 L584.9105724913746,364.45667337012134 M584.9105724913746,364.45667337012134 L583.0866759272305,359.87874493544695 M583.0866759272305,359.87874493544695 L580.1504331029164,356.6169893052211 M580.1504331029164,356.6169893052211 L576.2720735754293,354.8614250883918 M576.2720735754293,354.8614250883918 L571.6767103643782,354.7146491584979 M571.6767103643782,354.7146491584979 L566.6313256711065,356.18576897339005 M566.6313256711065,356.18576897339005 L561.4292732358974,359.18969725292453 M561.4292732358974,359.18969725292453 L556.3731958223526,363.5520447949327 M556.3731958223526,363.5520447949327 L551.7573683821524,369.0192094368108 M551.7573683821524,369.0192094368108 L547.8504934076203,375.27309422649364 M547.8504934076203,375.27309422649364 L544.8799811481781,381.94972264534965 M544.8799811481781,381.94972264534965 L543.0186551740509,388.6604820988095 M543.0186551740509,388.6604820988095 L542.3746646688411,395.0148614796472 M542.3746646688411,395.0148614796472 L542.9852002976112,400.6432482051043 M542.9852002976112,400.6432482051043 L544.8143940322399,405.21848679943463 M544.8143940322399,405.21848679943463 L547.7554850501217,408.4749174206565 M547.7554850501217,408.4749174206565 L551.637133131614,410.2237413583059 M551.637133131614,410.2237413583059 L556.2334718926595,410.36390584752627 M556.2334718926595,410.36390584752627 L561.277295641734,408.8878180458792 M561.277295641734,408.8878180458792 L566.4756082344159,405.88170332072076 M566.4756082344159,405.88170332072076 L571.5266236553178,401.5204517605613 M571.5266236553178,401.5204517605613 L576.1372265975549,396.0574144745601 M576.1372265975549,396.0574144745601 L580.0399114370243,389.80974286998776 M580.0399114370243,389.80974286998776 L583.008227834353,383.1399901087948 M583.008227834353,383.1399901087948 L584.8698552645038,376.4351936509152 M584.8698552645038,376.4351936509152 L585.5165754892278,370.0844985532661 M659.4856919838675,518.9194046878795 L639.4739175665796,507.41044808803406 M507.2032501821071,607.4111363492523 L659.4856919838675,518.9194046878795 M487.19109327376384,595.842944936069 L507.2032501821071,607.4111363492523 M659.4856919838675,518.9194046878795 L660.8683071321657,211.12841001209958 M640.7664651241088,199.6712824512683 L660.8683071321657,211.12841001209958 M507.9055961725429,299.22277724898873 L487.8033665057344,287.70641653226164 M507.2032501821071,607.4111363492523 L507.9055961725429,299.22277724898873 M674.1321857179147,203.48946988226015 L654.0303898234787,192.03747142170437 M660.8683071321657,211.12841001209958 L674.1321857179147,203.48946988226015 M494.5671512913883,306.9046616400126 L507.9055961725429,299.22277724898873 M474.46490039489004,295.3831285177621 L494.5671512913883,306.9046616400126 M674.2045965814231,188.02927910154088 L654.098276052255,176.57990856681718 M674.1321857179147,203.48946988226015 L674.2045965814231,188.02927910154088 M494.59944591122417,291.4208178276133 L494.5671512913883,306.9046616400126 M474.49267007387914,279.90191295048623 L494.59944591122417,291.4208178276133 M494.59944591122417,291.4208178276133 L674.2045965814231,188.02927910154088 M605.5779552475173,381.5863153179326 L604.9737062690973,375.9577237045055 M604.9737062690973,375.9577237045055 L603.1514655071993,371.379558863683 M603.1514655071993,371.379558863683 L600.2166838988783,368.1181108361237 M600.2166838988783,368.1181108361237 L596.3395058785561,366.3633807038304 M596.3395058785561,366.3633807038304 L591.744975587957,366.2179172377389 M591.744975587957,366.2179172377389 L586.7000266389499,367.6907519311448 M586.7000266389499,367.6907519311448 L581.4979873495979,370.69669801373993 M581.4979873495979,370.69669801373993 L576.441499716931,375.0612490178678 M576.441499716931,375.0612490178678 L571.8248626268806,380.5306745528217 M571.8248626268806,380.5306745528217 L567.9168258060408,386.7867459615407 M567.9168258060408,386.7867459615407 L564.9448672386984,393.465359276708 M564.9448672386984,393.465359276708 L563.0818947532712,400.17778619718985 M563.0818947532712,400.17778619718985 L562.4361533663741,406.5334184595368 M562.4361533663741,406.5334184595368 L563.0449355534091,412.16257057755564 M563.0449355534091,412.16257057755564 L564.8724751417648,416.73804268118994 M564.8724751417648,416.73804268118994 L567.8121072985367,419.9941616074111 M567.8121072985367,419.9941616074111 L571.6925763871819,421.7421471102063 M571.6925763871819,421.7421471102063 L576.2880843255314,421.8809955239219 M576.2880843255314,421.8809955239219 L581.331473530959,420.4031907980799 M581.331473530959,420.4031907980799 L586.5297730062226,417.3950582588318 M586.5297730062226,417.3950582588318 L591.581197495991,413.0316052627032 M591.581197495991,413.0316052627032 L596.1926080226318,407.56631068279995 M596.1926080226318,407.56631068279995 L600.0964522009454,401.31645680685335 M600.0964522009454,401.31645680685335 L603.0662125311211,394.644723249506 M603.0662125311211,394.644723249506 L604.9294847740268,387.93826223795736 M604.9294847740268,387.93826223795736 L605.5779552475173,381.5863153179326 M605.5779552475173,381.5863153179326 L585.5165754892278,370.0844985532661" stroke="black"  stroke-width="4"  fill="red"/>
<path d="M493.828357972134,661.1234269670597 L672.4756395263543,557.1728665126459 M672.4756395263543,557.1728665126459 L672.7251331586895,503.9043517126917 M493.9396267057317,607.7749837593262 L510.4022989288769,608.9351011617669 M510.4022989288769,608.9351011617669 L527.8064381203855,607.3051369608359 M527.8064381203855,607.3051369608359 L545.9257365816765,602.909644297278 M545.9257365816765,602.909644297278 L564.5252263860208,595.8086836119107 M564.5252263860208,595.8086836119107 L583.3643315337157,586.0968701382775 M583.3643315337157,586.0968701382775 L602.1999074850846,573.9020434110481 M602.1999074850846,573.9020434110481 L620.7893169541662,559.3835152287459 M620.7893169541662,559.3835152287459 L638.8934756137235,542.7299617987513 M638.8934756137235,542.7299617987513 L656.2798032094663,524.1569863594113 M656.2798032094663,524.1569863594113 L672.7251331586895,503.9043517126917 M493.9396267057317,607.7749837593262 L493.828357972134,661.1234269670597 M692.487296545591,568.6920445455341 L672.4756395263543,557.1728665126459 M513.8405036648754,672.7122110219909 L692.487296545591,568.6920445455341 M493.828357972134,661.1234269670597 L513.8405036648754,672.7122110219909 M672.7251331586895,503.9043517126917 L692.7523999716533,515.4146486149527 M692.487296545591,568.6920445455341 L692.7523999716533,515.4146486149527 M513.9673833318369,619.3548872169854 L530.4268825757596,620.5103668677364 M530.4268825757596,620.5103668677364 L547.8284994738539,618.8750256852113 M547.8284994738539,618.8750256852113 L565.9459581368453,614.4734884137636 M565.9459581368453,614.4734884137636 L584.5443138136808,607.3658953595943 M584.5443138136808,607.3658953595943 L603.3830047843219,597.6469487681541 M603.3830047843219,597.6469487681541 L622.2188917294484,585.4445811720566 M622.2188917294484,585.4445811720566 L640.8093334658481,570.9182021289993 M640.8093334658481,570.9182021289993 L658.9152326924811,554.2565891096222 M658.9152326924811,554.2565891096222 L676.3039872512562,535.6754488540881 M676.3039872512562,535.6754488540881 L692.7523999716533,515.4146486149527 M493.9396267057317,607.7749837593262 L513.9673833318369,619.3548872169854 M513.8405036648754,672.7122110219909 L513.9673833318369,619.3548872169854" stroke="black"  stroke-width="4"  fill="red"/>
<path d="M209.30406669361446,290.56047144189347 L30.6567493628948,392.9065233446563 M30.6567493628948,392.9065233446563 L30.443687750289428,347.08929756895145 M43.722361962206946,339.4922080779723 L30.443687750289428,347.08929756895145 M43.85851546904047,370.0403936991711 L43.722361962206946,339.4922080779723 M196.07329495724792,282.8763103570966 L43.85851546904047,370.0403936991711 M196.07329495724792,282.8763103570966 L196.00483578685706,252.36727654563398 M209.21017970832713,244.81214130174592 L196.00483578685706,252.36727654563398 M209.30406669361446,290.56047144189347 L209.21017970832713,244.81214130174592 M30.6567493628948,392.9065233446563 L493.828357972134,661.1234269670597 M493.828357972134,661.1234269670597 L672.4756395263543,557.1728665126459 M672.4756395263543,557.1728665126459 L209.30406669361446,290.56047144189347 M296.2228119944098,468.1595675580036 L301.9891263827488,470.769183018202 M301.9891263827488,470.769183018202 L308.67169323971956,472.506044160928 M308.67169323971956,472.506044160928 L315.8817230362392,473.26893708844034 M315.8817230362392,473.26893708844034 L323.19959857295015,473.0133941071334 M323.19959857295015,473.0133941071334 L330.19940326347916,471.75431019578787 M330.19940326347916,471.75431019578787 L336.4738121060966,469.56506808523983 M336.4738121060966,469.56506808523983 L341.65788182226544,466.5732232888228 M341.65788182226544,466.5732232888228 L345.45033452334917,462.95301672142506 M345.45033452334917,462.95301672142506 L347.63106186633155,458.9151672291734 M347.63106186633155,458.9151672291734 L348.0738488560458,454.6945471087337 M348.0738488560458,454.6945471087337 L346.75359332256636,450.5364858000305 M346.75359332256636,450.5364858000305 L343.7476188624843,446.6825059999537 M343.7476188624843,446.6825059999537 L339.23104122725823,443.3563140036653 M339.23104122725823,443.3563140036653 L333.46649981346417,440.7508586327473 M333.46649981346417,440.7508586327473 L326.78885372479965,439.0172045533377 M326.78885372479965,439.0172045533377 L319.5857667752796,438.2558318735461 M319.5857667752796,438.2558318735461 L312.27526284990194,438.51085840490856 M312.27526284990194,438.51085840490856 L305.2815674273248,439.7675061169116 M305.2815674273248,439.7675061169116 L299.01061370969137,441.9529548632194 M299.01061370969137,441.9529548632194 L293.8265481154342,444.9405150676445 M293.8265481154342,444.9405150676445 L290.0306475895066,448.5569273624961 M290.0306475895066,448.5569273624961 L287.84381566332894,452.592345203633 M287.84381566332894,452.592345203633 L287.39365805801356,456.8124488738171 M287.39365805801356,456.8124488738171 L288.70696782193335,460.97202860976455 M288.70696782193335,460.97202860976455 L291.70801534148654,464.8292154732386 M291.70801534148654,464.8292154732386 L296.2228119944098,468.1595675580036 M493.828357972134,661.1234269670597 L493.8443379487313,653.4617339972233 M360.75719403521765,576.409730922968 L493.8443379487313,653.4617339972233 M360.75719403521765,576.409730922968 L360.7627473320769,538.1181149380445 M30.443687750289428,347.08929756895145 L360.7627473320769,538.1181149380445 M43.722361962206946,339.4922080779723 L374.0417890479178,530.4360617326201 M360.7627473320769,538.1181149380445 L374.0417890479178,530.4360617326201 M43.85851546904047,370.0403936991711 L374.0314263609152,561.0693651007333 M374.0314263609152,561.0693651007333 L374.0417890479178,530.4360617326201 M374.0314263609152,561.0693651007333 L440.5081303861576,599.5309589298733 M440.5081303861576,599.5309589298733 L592.7240168504013,511.1972915262673 M592.7240168504013,511.1972915262673 L526.2480694350803,472.93225707587044 M526.2480694350803,472.93225707587044 L196.07329495724792,282.8763103570966 M296.2106834874085,452.87715487188876 L291.6948847910234,449.54754371837345 M291.6948847910234,449.54754371837345 L288.6931719668371,445.6912151746752 M288.6931719668371,445.6912151746752 L287.3795721146872,441.5325612639542 M287.3795721146872,441.5325612639542 L287.8298314427576,437.313397118779 M287.8298314427576,437.313397118779 L290.01715071068503,433.278877901227 M290.01715071068503,433.278877901227 L293.81389564465144,429.6632711029259 M293.81389564465144,429.6632711029259 L298.9991135076289,426.67637645608073 M298.9991135076289,426.67637645608073 L305.2714603898144,424.49141464900964 M305.2714603898144,424.49141464900964 L312.2667090391518,423.23504695829706 M312.2667090391518,423.23504695829706 L319.5788362159943,422.9800772574918 M319.5788362159943,422.9800772574918 L326.78352238490555,423.7412802741588 M326.78352238490555,423.7412802741588 L333.4626509834628,425.4745480567002 M333.4626509834628,425.4745480567002 L339.2284722254629,428.0794229470135 M339.2284722254629,428.0794229470135 L343.74605269641273,431.4048740142087 M343.74605269641273,431.4048740142087 L346.7526946510789,435.25799549617227 M346.7526946510789,435.25799549617227 L348.0732433590859,439.41513098023415 M348.0732433590859,439.41513098023415 L347.6303579216075,443.63481157539724 M347.6303579216075,443.63481157539724 L345.4491459497762,447.6717624433086 M345.4491459497762,447.6717624433086 L341.6558503716937,451.2911635120878 M341.6558503716937,451.2911635120878 L336.4706283840572,454.28234274870385 M336.4706283840572,454.28234274870385 L330.1948248409816,456.47109791815006 M330.1948248409816,456.47109791815006 L323.1934642076687,457.72990180643734 M323.1934642076687,457.72990180643734 L315.8739621438377,457.9853879569194 M315.8739621438377,457.9853879569194 L308.66233004357724,457.22266469352166 M308.66233004357724,457.22266469352166 L301.97827849087724,455.486189849326 M301.97827849087724,455.486189849326 L296.2106834874085,452.87715487188876 M526.3261289387779,442.3381080979879 L196.00483578685706,252.36727654563398 M526.2480694350803,472.93225707587044 L526.3261289387779,442.3381080979879 M526.3261289387779,442.3381080979879 L539.5314311154351,434.698713924403 M539.5314311154351,434.698713924403 L209.21017970832713,244.81214130174592 M539.4265509522351,472.93289432982937 L539.5314311154351,434.698713924403 M672.5114708894386,549.5226372186357 L539.4265509522351,472.93289432982937 M672.4756395263543,557.1728665126459 L672.5114708894386,549.5226372186357 M493.8443379487313,653.4617339972233 L507.11589822860515,645.7410415249797 M507.2032501821071,607.4111363492523 L507.11589822860515,645.7410415249797 M507.2032501821071,607.4111363492523 L659.4856919838675,518.9194046878795 M659.313731583585,557.2003845490578 L659.4856919838675,518.9194046878795 M659.313731583585,557.2003845490578 L672.5114708894386,549.5226372186357 M296.2228119944098,468.1595675580036 L296.2106834874085,452.87715487188876 M507.11589822860515,645.7410415249797 L374.0288371328378,568.7234232772046 M374.0288371328378,568.7234232772046 L360.75719403521765,576.409730922968 M374.0288371328378,568.7234232772046 L374.0314263609152,561.0693651007333 M526.2285654061772,480.5765430073265 L659.313731583585,557.2003845490578 M526.2285654061772,480.5765430073265 L526.2480694350803,472.93225707587044 M592.7240168504013,511.1972915262673 L592.8317722936009,480.58611884681164 M659.4856919838675,518.9194046878795 L592.8317722936009,480.58611884681164 M440.5481900246501,568.8806322116777 L507.2032501821071,607.4111363492523 M440.5081303861576,599.5309589298733 L440.5481900246501,568.8806322116777 M440.5481900246501,568.8806322116777 L592.8317722936009,480.58611884681164 M539.4265509522351,472.93289432982937 L526.2285654061772,480.5765430073265" stroke="black"  stroke-width="4"  fill="red"/>
<path d="M360.75719403521765,576.409730922968 L360.80739769293126,230.24073781160388 M360.80739769293126,230.24073781160388 L494.5671512913883,306.9046616400126 M493.8443379487313,653.4617339972233 L494.5671512913883,306.9046616400126 M360.75719403521765,576.409730922968 L493.8443379487313,653.4617339972233 M493.8443379487313,653.4617339972233 L507.11589822860515,645.7410415249797 M494.5671512913883,306.9046616400126 L507.9055961725429,299.22277724898873 M507.11589822860515,645.7410415249797 L507.9055961725429,299.22277724898873 M507.9055961725429,299.22277724898873 L374.1459266524476,222.59323768666522 M374.0288371328378,568.7234232772046 L374.1459266524476,222.59323768666522 M507.11589822860515,645.7410415249797 L374.0288371328378,568.7234232772046 M374.0288371328378,568.7234232772046 L360.75719403521765,576.409730922968 M374.1459266524476,222.59323768666522 L360.80739769293126,230.24073781160388" stroke="black"  stroke-width="4"  fill="red"/>
<path d="M526.2285654061772,480.5765430073265 L527.1105613235691,134.89263244683445 M527.1105613235691,134.89263244683445 L660.8683071321657,211.12841001209958 M659.313731583585,557.2003845490578 L660.8683071321657,211.12841001209958 M526.2285654061772,480.5765430073265 L659.313731583585,557.2003845490578 M659.313731583585,557.2003845490578 L672.5114708894386,549.5226372186357 M660.8683071321657,211.12841001209958 L674.1321857179147,203.48946988226015 M672.5114708894386,549.5226372186357 L674.1321857179147,203.48946988226015 M674.1321857179147,203.48946988226015 L540.3746898864086,127.28778897800908 M539.4265509522351,472.93289432982937 L540.3746898864086,127.28778897800908 M672.5114708894386,549.5226372186357 L539.4265509522351,472.93289432982937 M539.4265509522351,472.93289432982937 L526.2285654061772,480.5765430073265 M540.3746898864086,127.28778897800908 L527.1105613235691,134.89263244683445" stroke="black"  stroke-width="4"  fill="red"/>
<path d="M769.5563122497106,309.82633737633535 L749.4820130314191,298.37260574870993 M749.4820130314191,298.37260574870993 L748.319854570796,275.01366228371205 M748.319854570796,275.01366228371205 L744.570800300302,253.51005024598678 M744.570800300302,253.51005024598678 L738.2904636639536,234.20111260314826 M738.2904636639536,234.20111260314826 L729.5740895410896,217.3928280541489 M729.5740895410896,217.3928280541489 L718.5552835139804,203.35291958254084 M718.5552835139804,203.35291958254084 L705.4041629621192,192.30635051345575 M705.4041629621192,192.30635051345575 L690.3249011612518,184.43172508531183 M690.3249011612518,184.43172508531183 L673.552729987279,179.85809334617858 M673.552729987279,179.85809334617858 L655.3503443431852,178.66252784083392 M655.3503443431852,178.66252784083392 L636.0039134407508,180.86887162931583 M636.0039134407508,180.86887162931583 L615.8186274815163,186.44671875662164 M615.8186274815163,186.44671875662164 L595.1138651426277,195.31186618374383 M595.1138651426277,195.31186618374383 L574.2180968440937,207.32725263780785 M574.2180968440937,207.32725263780785 L553.463589543134,222.30501739667602 M553.463589543134,222.30501739667602 L533.1809875950923,240.00936229988457 M533.1809875950923,240.00936229988457 L513.693894733884,260.1601620811237 M513.693894733884,260.1601620811237 L495.3135374472548,282.43758451231236 M495.3135374472548,282.43758451231236 L478.33359463540626,306.48702934723747 M478.33359463540626,306.48702934723747 L463.0253233377762,331.92525675640536 M463.0253233377762,331.92525675640536 L449.633100713242,358.34636200048186 M449.633100713242,358.34636200048186 L438.37033178503793,385.32861801293063 M438.37033178503793,385.32861801293063 L429.415962619146,412.44153010159386 M429.415962619146,412.44153010159386 L422.91157274726936,439.2527736597293 M422.91157274726936,439.2527736597293 L418.95913595746003,465.33541258326494 M418.95913595746003,465.33541258326494 L417.61944555104174,490.2748754448041 M417.61944555104174,490.2748754448041 L418.9112260165099,513.6756829185887 M418.9112260165099,513.6756829185887 L422.81103727175804,535.167813786419 M422.81103727175804,535.167813786419 L429.25379319881284,554.4126468498495 M429.25379319881284,554.4126468498495 L438.1340436101654,571.1082315260942 M438.1340436101654,571.1082315260942 L449.30788610762056,584.993940916648 M449.30788610762056,584.993940916648 L462.5954623184525,595.8544571833213 M462.5954623184525,595.8544571833213 L477.7840249733139,603.5228947730589 M477.7840249733139,603.5228947730589 L494.63147434948837,607.8832022413017 M494.63147434948837,607.8832022413017 L512.8703860565155,608.8716129750919 M512.8703860565155,608.8716129750919 L532.2122953067162,606.4773905805605 M532.2122953067162,606.4773905805605 L552.3522960834796,600.7426913925956 M552.3522960834796,600.7426913925956 L572.973854794567,591.7616050573101 M572.973854794567,591.7616050573101 L593.753728848008,579.67845976168 M593.753728848008,579.67845976168 L614.3669331798632,564.6853740543197 M614.3669331798632,564.6853740543197 L634.4917018819855,547.0191272254257 M634.4917018819855,547.0191272254257 L653.8143485889998,526.9574199679578 M653.8143485889998,526.9574199679578 L672.0339796651351,504.81454137064986 M672.0339796651351,504.81454137064986 L688.8670156239061,480.936547027609 M688.8670156239061,480.936547027609 L704.0514299826482,455.69600151494217 M704.0514299826482,455.69600151494217 L717.3506284957143,429.4863449235505 M717.3506284957143,429.4863449235505 L728.5570512721479,402.7159892584617 M728.5570512721479,402.7159892584617 L737.4952925861636,375.8021578955603 M737.4952925861636,375.8021578955603 L744.0247860109739,349.1646515063714 M744.0247860109739,349.1646515063714 L748.0419802616905,323.2194896674265 M748.0419802616905,323.2194896674265 L749.4820130314191,298.37260574870993 M769.5563122497106,309.82633737633535 L768.1092204875979,334.677786180735 M768.1092204875979,334.677786180735 L764.0850952992114,360.62844082264047 M764.0850952992114,360.62844082264047 L757.5489075806761,387.27228249298906 M757.5489075806761,387.27228249298906 L748.604313082321,414.19319357805136 M748.604313082321,414.19319357805136 L737.3919769963992,440.9712642016099 M737.3919769963992,440.9712642016099 L724.0873966350958,467.1891521858629 M724.0873966350958,467.1891521858629 L708.8982149674603,492.4383188169334 M708.8982149674603,492.4383188169334 L692.0610995993061,516.3251911932938 M692.0610995993061,516.3251911932938 L673.838139624166,538.4770677380895 M673.838139624166,538.4770677380895 L654.5129655002489,558.5477536299561 M654.5129655002489,558.5477536299561 L634.3865094874876,576.2228203551686 M634.3865094874876,576.2228203551686 L613.772483698754,591.2244296648933 M613.772483698754,591.2244296648933 L592.9926665567017,603.3156686553316 M592.9926665567017,603.3156686553316 L572.372042240081,612.3042911573268 M572.372042240081,612.3042911573268 L552.2338390699649,618.0458493684412 M552.2338390699649,618.0458493684412 L532.8945631762579,620.4461439630152 M532.8945631762579,620.4461439630152 L514.6590803047541,619.4629206805259 M514.6590803047541,619.4629206805259 L497.8158027181589,615.1068314286563 M497.8158027181589,615.1068314286563 L482.6320907594064,607.4415732729251 M482.6320907594064,607.4415732729251 L469.34996949169386,596.5831443144184 M469.34996949169386,596.5831443144184 L458.1821019630277,582.6983940358482 M458.1821019630277,582.6983940358482 L449.30825398856,566.00262223292 M449.30825398856,566.00262223292 L442.8722284156005,546.756456266578 M442.8722284156005,546.756456266578 L438.9793703778455,525.2618658263422 M438.9793703778455,525.2618658263422 L437.6946570219401,501.8575096866926 M437.6946570219401,501.8575096866926 L439.0414172060123,476.91346461372547 M439.0414172060123,476.91346461372547 L443.00081470880866,450.8252825839965 M443.00081470880866,450.8252825839965 L449.5119457690884,424.00762362453713 M449.5119457690884,424.00762362453713 L458.4727291869644,396.887526910811 M458.4727291869644,396.887526910811 L469.74148282392207,369.8974328483064 M469.74148282392207,369.8974328483064 L483.13916455394667,343.46796265831136 M483.13916455394667,343.46796265831136 L498.4522814128095,318.02097851309105 M498.4522814128095,318.02097851309105 L515.4363779516382,293.9625264917345 M515.4363779516382,293.9625264917345 L533.8201298788762,271.6759915232857 M533.8201298788762,271.6759915232857 L553.3098031650673,251.51612029683704 M553.3098031650673,251.51612029683704 L573.5941293835303,233.80289028771028 M573.5941293835303,233.80289028771028 L594.3494767214975,218.816568420462 M594.3494767214975,218.816568420462 L615.2451871471236,206.79308857098317 M615.2451871471236,206.79308857098317 L635.9489946490187,197.9204390627522 M635.9489946490187,197.9204390627522 L656.132444357482,192.3357986451798 M656.132444357482,192.3357986451798 L675.4761874951314,190.1234759011507 M675.4761874951314,190.1234759011507 L693.6750775340269,191.31396886175236 M693.6750775340269,191.31396886175236 L710.4430020092963,195.88351171793994 M710.4430020092963,195.88351171793994 L725.517334743538,203.7550933628712 M725.517334743538,203.7550933628712 L738.6629234571782,214.79970856151056 M738.6629234571782,214.79970856151056 L749.6756839355384,228.83878075687733 M749.6756839355384,228.83878075687733 L758.3855957785671,245.64735695568064 M758.3855957785671,245.64735695568064 L764.6591567191878,264.9577071418865 M764.6591567191878,264.9577071418865 L768.4012297808239,286.46382850551515 M768.4012297808239,286.46382850551515 L769.5563122497106,309.82633737633535 M625.6528031619565,393.09585379795755 L625.0025802350748,399.4490527903482 M625.0025802350748,399.4490527903482 L623.1376613902261,406.1571790800581 M623.1376613902261,406.1571790800581 L620.1664558571208,412.83089459060557 M620.1664558571208,412.83089459060557 L616.2614516625184,419.0829322605902 M616.2614516625184,419.0829322605902 L611.6492335058458,424.55048593457474 M611.6492335058458,424.55048593457474 L606.597400536003,428.9161423401288 M606.597400536003,428.9161423401288 L601.3991153672383,431.92629472579443 M601.3991153672383,431.92629472579443 L596.3561624259437,433.4058183490452 M596.3561624259437,433.4058183490452 L591.7614874624965,433.2682878101932 M591.7614874624965,433.2682878101932 L587.8821998258452,431.5211422629447 M587.8821998258452,431.5211422629447 L584.9440291536006,428.26533618501446 M584.9440291536006,428.26533618501446 L583.1181463468674,423.6896312905419 M583.1181463468674,423.6896312905419 L582.5111200956724,418.05971402150277 M582.5111200956724,418.05971402150277 L583.1586145720045,411.7028286280153 M583.1586145720045,411.7028286280153 L585.0232353615473,404.9887335141832 M585.0232353615473,404.9887335141832 L587.9966415101728,398.3081341420485 M587.9966415101728,398.3081341420485 L591.9058408569828,392.0498745870721 M591.9058408569828,392.0498745870721 L596.5232876431385,386.57818635440213 M596.5232876431385,386.57818635440213 L601.580184905028,382.21142991135673 M601.580184905028,382.21142991135673 L606.7822098568538,379.2034639919156 M606.7822098568538,379.2034639919156 L611.8267213376334,377.7289124475427 M611.8267213376334,377.7289124475427 L616.4204165520074,377.87306165327766 M616.4204165520074,377.87306165327766 L620.296410603176,379.62695618454865 M620.296410603176,379.62695618454865 L623.2297283706212,382.8880954607951 M623.2297283706212,382.8880954607951 L625.0503106951714,387.46649599331823 M625.0503106951714,387.46649599331823 L625.6528031619565,393.09585379795755 M605.5779552475173,381.5863153179326 L604.9737062690973,375.9577237045055 M604.9737062690973,375.9577237045055 L603.1514655071993,371.379558863683 M603.1514655071993,371.379558863683 L600.2166838988783,368.1181108361237 M600.2166838988783,368.1181108361237 L596.3395058785561,366.3633807038304 M596.3395058785561,366.3633807038304 L591.744975587957,366.2179172377389 M591.744975587957,366.2179172377389 L586.7000266389499,367.6907519311448 M586.7000266389499,367.6907519311448 L581.4979873495979,370.69669801373993 M581.4979873495979,370.69669801373993 L576.441499716931,375.0612490178678 M576.441499716931,375.0612490178678 L571.8248626268806,380.5306745528217 M571.8248626268806,380.5306745528217 L567.9168258060408,386.7867459615407 M567.9168258060408,386.7867459615407 L564.9448672386984,393.465359276708 M564.9448672386984,393.465359276708 L563.0818947532712,400.17778619718985 M563.0818947532712,400.17778619718985 L562.4361533663741,406.5334184595368 M562.4361533663741,406.5334184595368 L563.0449355534091,412.16257057755564 M563.0449355534091,412.16257057755564 L564.8724751417648,416.73804268118994 M564.8724751417648,416.73804268118994 L567.8121072985367,419.9941616074111 M567.8121072985367,419.9941616074111 L571.6925763871819,421.7421471102063 M571.6925763871819,421.7421471102063 L576.2880843255314,421.8809955239219 M576.2880843255314,421.8809955239219 L581.331473530959,420.4031907980799 M581.331473530959,420.4031907980799 L586.5297730062226,417.3950582588318 M586.5297730062226,417.3950582588318 L591.581197495991,413.0316052627032 M591.581197495991,413.0316052627032 L596.1926080226318,407.56631068279995 M596.1926080226318,407.56631068279995 L600.0964522009454,401.31645680685335 M600.0964522009454,401.31645680685335 L603.0662125311211,394.644723249506 M603.0662125311211,394.644723249506 L604.9294847740268,387.93826223795736 M604.9294847740268,387.93826223795736 L605.5779552475173,381.5863153179326 M625.6528031619565,393.09585379795755 L605.5779552475173,381.5863153179326" stroke="black"  stroke-width="4"  fill="red"/></svg>