<svg viewBox="0 0 800 800" xmlns="http://www.w3.org/2000/svg"><path d="M697.6187104058097,509.9930010269257 L680.0951348814147,520.1464154489074 M697.6187104058097,509.9930010269257 L699.155045370229,60.88193882754939 M699.155045370229,60.88193882754939 L460.76034362342386,197.65373539818168 M460.3902625891067,647.4466125922866 L460.76034362342386,197.65373539818168 M478.011767819734,637.2364562747816 L460.3902625891067,647.4466125922866 M477.9704489446705,677.9032059350559 L478.011767819734,637.2364562747816 M679.9639819997732,560.7612068250223 L477.9704489446705,677.9032059350559 M680.0951348814147,520.1464154489074 L679.9639819997732,560.7612068250223 M605.9997937717014,369.8417670998781 L605.2503667149861,362.95619735538145 M605.2503667149861,362.95619735538145 L603.009961624104,357.35468599346484 M603.009961624104,357.35468599346484 L599.4082708869277,353.36300650420486 M599.4082708869277,353.36300650420486 L594.6541421045632,351.213682577967 M594.6541421045632,351.213682577967 L589.0235531770209,351.0322775638127 M589.0235531770209,351.0322775638127 L582.8436385785883,352.82993829768316 M582.8436385785883,352.82993829768316 L576.4737026959288,356.50269740295244 M576.4737026959288,356.50269740295244 L570.2843054149814,361.83731828933503 M570.2843054149814,361.83731828933503 L564.635640382699,368.52364103902426 M564.635640382699,368.52364103902426 L559.8564909317481,376.1727174865058 M559.8564909317481,376.1727174865058 L556.2250106551305,384.33940604954097 M556.2250106551305,384.33940604954097 L553.9524576568272,392.5483981652214 M553.9524576568272,392.5483981652214 L553.1708735851079,400.3220674323984 M553.1708735851079,400.3220674323984 L553.9254201265774,407.20827238520235 M553.9254201265774,407.20827238520235 L556.1718045462738,412.80675276658945 M556.1718045462738,412.80675276658945 L559.7789646777989,416.7924294380198 M559.7789646777989,416.7924294380198 L564.5367999354413,418.93415388968566 M564.5367999354413,418.93415388968566 L570.1684833115885,419.10810373493564 M570.1684833115885,419.10810373493564 L576.3466296149824,417.30483999163124 M576.3466296149824,417.30483999163124 L582.7123395471592,413.6296136452491 M582.7123395471592,413.6296136452491 L588.8960213396117,408.2962265037736 M588.8960213396117,408.2962265037736 L594.5387906887865,401.6145558151802 M594.5387906887865,401.6145558151802 L599.3132148984337,393.9724840573714 M599.3132148984337,393.9724840573714 L602.9422228772564,385.81354811104217 M602.9422228772564,385.81354811104217 L605.2151228791366,377.6112804833183 M605.2151228791366,377.6112804833183 L605.9997937717014,369.8417670998781 M706.5920155225045,535.3850166329257 L724.1155439514685,525.2248181925042 M706.5920155225045,535.3850166329257 L680.0951348814147,520.1464154489074 M724.1155439514685,525.2248181925042 L697.6187104058097,509.9930010269257 M750.3862100896317,601.3889914676803 L723.8894520295627,586.1368375308574 M723.8894520295627,586.1368375308574 L724.1155439514685,525.2248181925042 M752.4284864376058,91.20424076996142 L699.155045370229,60.88193882754939 M750.3862100896317,601.3889914676803 L752.4284864376058,91.20424076996142 M706.4490221398659,576.0065852330811 L679.9639819997732,560.7612068250223 M706.4490221398659,576.0065852330811 L706.5920155225045,535.3850166329257 M504.45584341429014,693.226927221061 L706.4490221398659,576.0065852330811 M477.9704489446705,677.9032059350559 L504.45584341429014,693.226927221061 M460.3902625891067,647.4466125922866 L486.8875125450477,662.770397810812 M486.819570900054,723.7738472718486 L486.8875125450477,662.770397810812 M486.819570900054,723.7738472718486 L513.3167981038674,739.1180611724506 M513.3167981038674,739.1180611724506 L514.0346843594697,228.16005630359194 M460.76034362342386,197.65373539818168 L514.0346843594697,228.16005630359194 M504.45584341429014,693.226927221061 L504.50900326445867,652.5534005176567 M478.011767819734,637.2364562747816 L504.50900326445867,652.5534005176567 M486.8875125450477,662.770397810812 L504.50900326445867,652.5534005176567 M659.1244754642103,400.3220674323984 L658.3793253586736,393.43462343343674 M658.3793253586736,393.43462343343674 L656.1429556706483,387.83253291159775 M656.1429556706483,387.83253291159775 L652.5448239602933,383.8416035644663 M652.5448239602933,383.8416035644663 L647.7935705208437,381.69431628503287 M647.7935705208437,381.69431628503287 L642.1650056609436,381.5161168972752 M642.1650056609436,381.5161168972752 L635.9861458393851,383.3179666235492 M635.9861458393851,383.3179666235492 L629.616233897108,386.99565504282765 M629.616233897108,386.99565504282765 L623.4258283243189,392.335659093423 M623.4258283243189,392.335659093423 L617.7751816044512,399.0275056094172 M617.7751816044512,399.0275056094172 L612.993192617986,406.6819247226579 M612.993192617986,406.6819247226579 L609.3581804676544,414.85346351289104 M609.3581804676544,414.85346351289104 L607.0816089907967,423.0665307408831 M607.0816089907967,423.0665307408831 L606.2957536864981,430.84326262225215 M606.2957536864981,430.84326262225215 L607.0460245940216,437.73133949447134 M607.0460245940216,437.73133949447134 L609.2883773535124,443.33039251204696 M609.2883773535124,443.33039251204696 L612.8919837688994,447.31530982342224 M612.8919837688994,447.31530982342224 L617.646949345722,449.4549878278945 M617.646949345722,449.4549878278945 L623.2766133706072,449.6257239090601 M623.2766133706072,449.6257239090601 L629.4537075873504,447.81826656257124 M629.4537075873504,447.81826656257124 L635.8193936268949,444.1381108746115 M635.8193936268949,444.1381108746115 L642.0040811055263,438.7993451308841 M642.0040811055263,438.7993451308841 L647.6488274801541,432.11215878235595 M647.6488274801541,432.11215878235595 L652.4260855747294,424.46475415253576 M652.4260855747294,424.46475415253576 L656.0586200827169,416.30097721648883 M656.0586200827169,416.30097721648883 L658.3355347490196,408.094641041454 M658.3355347490196,408.094641041454 L659.1244754642103,400.3220674323984 M659.1244754642103,400.3220674323984 L605.9997937717014,369.8417670998781 M486.819570900054,723.7738472718486 L723.8894520295627,586.1368375308574 M513.3167981038674,739.1180611724506 L750.3862100896317,601.3889914676803 M514.0346843594697,228.16005630359194 L752.4284864376058,91.20424076996142" stroke="black"  stroke-width="4"  fill="red"/>
<path d="M284.86634799542963,333.42486615042685 L47.79645246738056,469.5410332221264 M47.79645246738056,469.5410332221264 L47.571513562394216,408.70689980003885 M65.19273311466617,398.60302788691985 L47.571513562394216,408.70689980003885 M65.33487072586445,439.1636017140385 L65.19273311466617,398.60302788691985 M267.3280631141281,323.2387905895333 L65.33487072586445,439.1636017140385 M267.3280631141281,323.2387905895333 L267.27575905972185,282.73017334881905 M284.79955940581584,272.68216086008204 L267.27575905972185,282.73017334881905 M284.86634799542963,333.42486615042685 L284.79955940581584,272.68216086008204 M47.79645246738056,469.5410332221264 L486.819570900054,723.7738472718486 M486.819570900054,723.7738472718486 L723.8894520295627,586.1368375308574 M723.8894520295627,586.1368375308574 L284.86634799542963,333.42486615042685 M315.18329626209044,517.6279471290638 L322.2466013921984,520.8243717016163 M322.2466013921984,520.8243717016163 L330.43210762293614,522.9517707621499 M330.43210762293614,522.9517707621499 L339.26362705935384,523.8861960590738 M339.26362705935384,523.8861960590738 L348.22723672478895,523.5731955187098 M348.22723672478895,523.5731955187098 L356.8012848705036,522.0310088606695 M356.8012848705036,522.0310088606695 L364.4868911966565,519.3494988765758 M364.4868911966565,519.3494988765758 L370.8370630311497,515.6848719945053 M370.8370630311497,515.6848719945053 L375.48275042740653,511.25051805970224 M375.48275042740653,511.25051805970224 L378.15429723103296,506.30451193985976 M378.15429723103296,506.30451193985976 L378.69703217138726,501.13453053438866 M378.69703217138726,501.13453053438866 L377.0801272770645,496.04108747117135 M377.0801272770645,496.04108747117135 L373.3982214106577,491.32004546746896 M373.3982214106577,491.32004546746896 L367.8657712460014,487.2454643297486 M367.8657712460014,487.2454643297486 L360.8044708442204,484.05374362520223 M360.8044708442204,484.05374362520223 L352.6245306807287,481.9299720410208 M352.6245306807287,481.9299720410208 L343.8008577397621,480.99726347329073 M343.8008577397621,480.99726347329073 L334.84558325605457,481.30968005642256 M334.84558325605457,481.30968005642256 L326.27844530205147,482.8491134347429 M326.27844530205147,482.8491134347429 L318.59674692980957,485.5263349042355 M318.59674692980957,485.5263349042355 L312.2465797561735,489.18611714116815 M312.2465797561735,489.18611714116815 L307.59699266054866,493.6161801500166 M307.59699266054866,493.6161801500166 L304.91854096221726,498.5594354053578 M304.91854096221726,498.5594354053578 L304.3674719657188,503.72883285327123 M304.3674719657188,503.72883285327123 L305.9765270597762,508.8239950582579 M305.9765270597762,508.8239950582579 L309.65285987996236,513.5486621224729 M309.65285987996236,513.5486621224729 L315.18329626209044,517.6279471290638 M486.819570900054,723.7738472718486 L486.8875125450477,662.770397810812 M47.571513562394216,408.70689980003885 L486.8875125450477,662.770397810812 M65.19273311466617,398.60302788691985 L504.50900326445867,652.5534005176567 M486.8875125450477,662.770397810812 L504.50900326445867,652.5534005176567 M504.45584341429014,693.226927221061 L504.50900326445867,652.5534005176567 M65.33487072586445,439.1636017140385 L504.45584341429014,693.226927221061 M504.45584341429014,693.226927221061 L706.4490221398659,576.0065852330811 M706.4490221398659,576.0065852330811 L267.3280631141281,323.2387905895333 M315.16769010482795,497.3481964976132 L309.63602624274006,493.2698190872177 M309.63602624274006,493.2698190872177 L305.95887836157215,488.5462034122309 M305.95887836157215,488.5462034122309 L304.3494677808932,483.4521752871655 M304.3494677808932,483.4521752871655 L304.9006612274288,478.2839287008814 M304.9006612274288,478.2839287008814 L307.5797097627379,473.3417742046741 M307.5797097627379,473.3417742046741 L312.23033113531494,468.91269788007594 M312.23033113531494,468.91269788007594 L318.5819097686614,465.253730911082 M318.5819097686614,465.253730911082 L326.265314754791,462.57710591293943 M326.265314754791,462.57710591293943 L334.83435544464953,461.0380155441762 M334.83435544464953,461.0380155441762 L343.7916184678513,460.72566857510725 M343.7916184678513,460.72566857510725 L352.61725050102353,461.6581693153533 M352.61725050102353,461.6581693153533 L360.79900675143796,463.7814677092685 M360.79900675143796,463.7814677092685 L367.861874902964,466.9724773601001 M367.861874902964,466.9724773601001 L373.39555344340215,471.0461509040635 M373.39555344340215,471.0461509040635 L377.07827684746064,475.7661415201488 M377.07827684746064,475.7661415201488 L378.69554071726236,480.8584505046045 M378.69554071726236,480.8584505046045 L378.15268502994803,486.02728104814344 M378.15268502994803,486.02728104814344 L375.4805444573808,490.972186407694 M375.4805444573808,490.972186407694 L370.8338245156045,495.4055536557542 M370.8338245156045,495.4055536557542 L364.4822412182942,499.06936526737445 M364.4822412182942,499.06936526737445 L356.79492654131866,501.7502787781634 M356.79492654131866,501.7502787781634 L348.21897258818063,503.29212242495134 M348.21897258818063,503.29212242495134 L339.25337067942337,503.6050533509499 M339.25337067942337,503.6050533509499 L330.41988866414545,502.6708358821316 M330.41988866414545,502.6708358821316 L322.23256387446725,500.54391001401257 M322.23256387446725,500.54391001401257 L315.16769010482795,497.3481964976132 M706.4490221398659,576.0065852330811 L706.5920155225045,535.3850166329257 M706.5920155225045,535.3850166329257 L267.27575905972185,282.73017334881905 M724.1155439514685,525.2248181925042 L284.79955940581584,272.68216086008204 M706.5920155225045,535.3850166329257 L724.1155439514685,525.2248181925042 M723.8894520295627,586.1368375308574 L724.1155439514685,525.2248181925042 M315.18329626209044,517.6279471290638 L315.16769010482795,497.3481964976132" stroke="black"  stroke-width="4"  fill="red"/></svg>